{
  "accessors": [
    {
      "bufferView": 2,
      "componentType": 5126,
      "count": 9222,
      "max": [
        29.596384048461914,
        328.2597351074219,
        -89.24386596679688
      ],
      "min": [
        -38.03802490234375,
        311.3385009765625,
        -136.84617614746094
      ],
      "type": "VEC3"
    },
    {
      "bufferView": 2,
      "byteOffset": 110664,
      "componentType": 5126,
      "count": 9222,
      "max": [
        0.9995338916778564,
        0.9999987483024597,
        1.0
      ],
      "min": [
        -0.9992948174476624,
        -0.999999463558197,
        -1.0
      ],
      "type": "VEC3"
    },
    {
      "bufferView": 1,
      "componentType": 5126,
      "count": 9222,
      "max": [
        5.415596008300781,
        5.236635684967041
      ],
      "min": [
        -1.6910901069641113,
        -1.4033784866333008
      ],
      "type": "VEC2"
    },
    {
      "bufferView": 0,
      "componentType": 5125,
      "count": 20793,
      "type": "SCALAR"
    }
  ],
  "asset": {
    "extras": {
      "author": "Gruz 3D (https://sketchfab.com/heycrosscut)",
      "license": "CC-BY-4.0 (http://creativecommons.org/licenses/by/4.0/)",
      "source": "https://sketchfab.com/3d-models/f-22-raptor-1ef88e515402488387eba8cb89fa457f",
      "title": "F-22 raptor"
    },
    "generator": "Sketchfab-12.68.0",
    "version": "2.0"
  },
  "bufferViews": [
    {
      "buffer": 0,
      "byteLength": 83172,
      "name": "floatBufferViews",
      "target": 34963
    },
    {
      "buffer": 0,
      "byteLength": 73776,
      "byteOffset": 83172,
      "byteStride": 8,
      "name": "floatBufferViews",
      "target": 34962
    },
    {
      "buffer": 0,
      "byteLength": 221328,
      "byteOffset": 156948,
      "byteStride": 12,
      "name": "floatBufferViews",
      "target": 34962
    }
  ],
  "buffers": [
    {
      "byteLength": 378276,
      "uri": "scene.bin"
    }
  ],
  "materials": [
    {
      "doubleSided": true,
      "name": "lambert3",
      "pbrMetallicRoughness": {
        "baseColorFactor": [
          0.4,
          0.4,
          0.4,
          1.0
        ],
        "metallicFactor": 0.0,
        "roughnessFactor": 0.6
      }
    }
  ],
  "meshes": [
    {
      "name": "pCube190_lambert3_0",
      "primitives": [
        {
          "attributes": {
            "NORMAL": 1,
            "POSITION": 0,
            "TEXCOORD_0": 2
          },
          "indices": 3,
          "material": 0,
          "mode": 4
        }
      ]
    }
  ],
  "nodes": [
    {
      "children": [
        1
      ],
      "matrix": [
        0.2154814898967743,
        0.0,
        0.0,
        0.0,
        0.0,
        4.784650229278637e-17,
        -0.2154814898967743,
        0.0,
        0.0,
        0.2154814898967743,
        4.784650229278637e-17,
        0.0,
        0.0,
        0.0,
        0.0,
        1.0
      ],
      "name": "Sketchfab_model"
    },
    {
      "children": [
        2
      ],
      "matrix": [
        1.0,
        0.0,
        0.0,
        0.0,
        0.0,
        0.0,
        1.0,
        0.0,
        0.0,
        -1.0,
        0.0,
        0.0,
        0.0,
        0.0,
        0.0,
        1.0
      ],
      "name": "aa763ca94f604332a2807acc255127af.fbx"
    },
    {
      "children": [
        3
      ],
      "name": "RootNode"
    },
    {
      "children": [
        4
      ],
      "matrix": [
        1.0,
        0.0,
        0.0,
        0.0,
        0.0,
        1.0,
        0.0,
        0.0,
        0.0,
        0.0,
        1.0,
        0.0,
        4.351125717163086,
        -305.6117248535156,
        113.08782196044922,
        1.0
      ],
      "name": "pCube190"
    },
    {
      "mesh": 0,
      "name": "pCube190_lambert3_0"
    }
  ],
  "scene": 0,
  "scenes": [
    {
      "name": "Sketchfab_Scene",
      "nodes": [
        0
      ]
    }
  ]
}
